<?xml version="1.0" encoding="UTF-8"?>
<svg id="Layer_2" data-name="Layer 2" xmlns="http://www.w3.org/2000/svg" viewBox="0 0 36 36">
  <defs>
    <style>
      .cls-1 {
        fill: #ec008c;
      }

      .cls-2 {
        fill: #fff;
      }
    </style>
  </defs>
  <g id="Layer_1-2" data-name="Layer 1">
    <g>
      <circle class="cls-1" cx="18" cy="18" r="18"/>
      <path class="cls-2" d="m20.68,7.83c2.51,2.51,5,5,7.48,7.48-2.6,2.6-5.21,5.21-7.83,7.82-.21-.04-.41-.17-.62-.27-.69-.29-1.4-.54-2.13-.71-.44-.1-.88-.14-1.33-.06-.28.06-.49.24-.64.46-.36.5-.65,1.05-.92,1.61-.28.61-.58,1.22-.95,1.78-.22.33-.51.6-.81.85-.37.3-.75.57-1.17.78-.39.2-.79.37-1.22.46-.33.08-.67.14-1.01.12-.45-.03-.87-.15-1.2-.46-.25-.25-.4-.56-.44-.92-.02-.13-.05-.26-.04-.39,0-.52.13-1.02.31-1.51.22-.58.53-1.12.9-1.62.47-.63,1.06-1.09,1.79-1.38.73-.29,1.46-.6,2.11-1.07.27-.19.52-.4.75-.64.1-.11.14-.25.18-.39.1-.38.03-.76-.05-1.13-.12-.62-.29-1.23-.51-1.82-.12-.34-.24-.68-.4-1-.06-.12-.04-.2.06-.29.84-.83,1.68-1.67,2.52-2.51,1.69-1.69,3.38-3.38,5.07-5.07.04-.04.07-.08.11-.13Zm0,1.92c-.61.61-1.21,1.2-1.81,1.81-.33.33-.68.64-.97,1-.19.24-.35.49-.32.82.03.28.2.57.58.56.13,0,.24-.04.36-.07.44-.13.8-.41,1.18-.64.28-.16.56-.3.88-.35.27-.05.44.11.43.38-.01.28-.11.53-.21.79-.15.38-.36.74-.47,1.14-.06.19-.06.38.03.55.08.17.25.33.53.29.38-.06.74-.22,1.12-.27.31-.04.63.17.64.49.01.21-.01.42-.07.62-.06.23-.12.47-.17.7-.06.29.08.48.38.53.22.03.42-.03.61-.13.36-.19.65-.47.94-.74.59-.58,1.17-1.16,1.75-1.75.05-.05.1-.1.14-.15-1.86-1.86-3.71-3.71-5.58-5.57Zm-6.62,5.92c2.1,2.1,4.19,4.19,6.26,6.25.46-.46.94-.94,1.38-1.38-2.08-2.08-4.17-4.17-6.26-6.25-.45.45-.92.92-1.38,1.38Zm-3.87,11.14c.46.03,1.03-.36,1.03-1.01,0-.55-.44-1-1-1.01-.65,0-1.01.55-1.02,1-.01.55.48,1.05,1,1.02Z"/>
    </g>
  </g>
</svg>