<?xml version="1.0" encoding="UTF-8"?>
<svg id="Layer_2" data-name="Layer 2" xmlns="http://www.w3.org/2000/svg" viewBox="0 0 36 36">
  <defs>
    <style>
      .cls-1 {
        fill: #fff;
      }

      .cls-2 {
        fill: #23ad4b;
      }
    </style>
  </defs>
  <g id="Layer_1-2" data-name="Layer 1">
    <g>
      <circle class="cls-2" cx="18" cy="18" r="18"/>
      <g>
        <path class="cls-1" d="m14.61,20.51v2.52l-8.95-3.88v-2.15l8.95-3.88v2.53l-6.23,2.4,6.23,2.45Z"/>
        <path class="cls-1" d="m20.14,13.06l-2.49,10.25c-.08.34-.16.6-.22.8s-.16.35-.28.46-.31.16-.56.16c-.6,0-.91-.26-.91-.78,0-.14.06-.48.18-1.02l2.48-10.25c.13-.55.25-.92.37-1.12s.35-.3.69-.3c.3,0,.52.07.68.21s.24.34.24.59c0,.18-.06.52-.19,1.01Z"/>
        <path class="cls-1" d="m30.34,19.15l-8.95,3.9v-2.52l6.25-2.45-6.25-2.42v-2.5l8.95,3.86v2.13Z"/>
      </g>
    </g>
  </g>
</svg>