<?xml version="1.0" encoding="UTF-8"?>
<svg id="Layer_2" data-name="Layer 2" xmlns="http://www.w3.org/2000/svg" viewBox="0 0 36 36">
  <defs>
    <style>
      .cls-1 {
        fill: #fff;
      }
    </style>
  </defs>
  <g id="Layer_1-2" data-name="Layer 1">
    <g>
      <circle cx="18" cy="18" r="18"/>
      <g>
        <path class="cls-1" d="m12.18,23.33c-1.49,0-2.65-.41-3.49-1.24-.84-.83-1.26-2.01-1.26-3.55v-5.87h2.43v5.78c0,1,.2,1.72.61,2.16s.98.66,1.72.66,1.31-.22,1.72-.66.62-1.16.62-2.16v-5.78h2.4v5.87c0,1.54-.42,2.72-1.26,3.55-.84.83-2,1.24-3.49,1.24Z"/>
        <path class="cls-1" d="m17.97,23.15l4.51-6.21v1.77l-4.31-6.03h2.75l2.98,4.21h-1.15s2.94-4.21,2.94-4.21h2.64l-4.28,5.93v-1.74l4.54,6.29h-2.8l-3.08-4.45h1.11l-3.04,4.45h-2.79Z"/>
      </g>
    </g>
  </g>
</svg>