<?xml version="1.0" encoding="UTF-8"?>
<svg id="Layer_2" data-name="Layer 2" xmlns="http://www.w3.org/2000/svg" viewBox="0 0 36 36">
  <defs>
    <style>
      .cls-1 {
        fill: #f1b11d;
      }

      .cls-2, .cls-3 {
        fill: #fff;
      }

      .cls-3 {
        fill-rule: evenodd;
      }
    </style>
  </defs>
  <g id="Layer_1-2" data-name="Layer 1">
    <g>
      <circle class="cls-1" cx="18" cy="18" r="18"/>
      <g>
        <path class="cls-2" d="m12.78,17.55c.28-1.73,1-3.28,2.15-4.21.05-.05.12-.08.2-.08h5.74c.06,0,.12.02.18.06,1.16.93,1.89,2.49,2.17,4.23.21,1.28.17,2.65-.1,3.96-.28,1.31-.81,2.54-1.59,3.52-.85,1.07-2.01,1.83-3.47,2.07-.03,0-.06,0-.1,0-1.47-.24-2.62-1-3.48-2.07-.79-.98-1.31-2.22-1.59-3.52-.28-1.3-.31-2.68-.1-3.96Z"/>
        <path class="cls-2" d="m14.87,13.03v-2.09c0-.07.03-.14.07-.19l1.34-1.75c.06-.07.14-.11.23-.11h0s3.01,0,3.01,0c.1,0,.19.05.24.13l1.34,1.75c.04.05.06.11.06.17h0v2.03h-6.03c-.09,0-.18.02-.26.06Z"/>
        <path class="cls-3" d="m12.32,19h.04c0-.3.02-.59.05-.88l-.4.07c-.12.02-.22.08-.29.18l-1.89,2.67c-.14.19-.09.46.1.59.19.14.46.09.59-.1l1.79-2.53Z"/>
        <path class="cls-3" d="m23.8,22.84l-.69-.24c.09-.27.17-.55.23-.82l1.03.39s.09.09.12.15l1.39,2.96c.1.21,0,.47-.21.57-.21.1-.47,0-.57-.21l-1.31-2.8Z"/>
        <path class="cls-3" d="m23.68,19h-.04c0-.3-.02-.59-.05-.88l.4.07c.12.02.22.08.29.18l1.89,2.67c.14.19.09.46-.1.59-.19.14-.46.09-.59-.1l-1.79-2.53Z"/>
        <path class="cls-3" d="m24.61,15.54l-1.45.54c-.09-.27-.19-.54-.31-.8l1.17-.42,1.31-2.8c.1-.21.35-.3.57-.21.21.1.3.35.21.57l-1.39,2.96c-.03.06-.07.11-.12.15Z"/>
        <path class="cls-3" d="m11.62,22.17l1.03-.39c.07.28.14.55.23.82l-.69.24-1.31,2.8c-.1.21-.35.3-.57.21-.21-.1-.3-.35-.21-.57l1.39-2.96c.03-.06.07-.11.12-.15Z"/>
        <path class="cls-3" d="m11.97,14.87l1.19.42c-.12.26-.23.52-.32.79l-1.46-.54s-.09-.09-.12-.15l-1.39-2.96c-.1-.21,0-.47.21-.57.21-.1.47,0,.57.21l1.31,2.8Z"/>
      </g>
    </g>
  </g>
</svg>