<svg width="272" height="56" viewBox="0 0 272 56" fill="none" xmlns="http://www.w3.org/2000/svg">
<g clip-path="url(#clip0_2_3)">
<path d="M78.2271 46.5688V19.8798H67.6154V13.6967H96.4919V19.8798H85.8802V46.5688H78.2271Z" fill="#231F20"/>
<path d="M103.79 17.7666C102.449 17.7666 101.344 17.3753 100.476 16.5926C99.6084 15.8099 99.2139 14.8316 99.2139 13.6967C99.2139 12.5618 99.6478 11.5835 100.476 10.8008C101.344 10.0182 102.449 9.62683 103.79 9.62683C105.131 9.62683 106.236 9.97903 107.104 10.7226C107.972 11.4661 108.366 12.4053 108.366 13.5793C108.366 14.7924 107.932 15.8099 107.104 16.5926C106.275 17.3753 105.171 17.8057 103.75 17.8057L103.79 17.7666ZM100.082 46.5688V21.2886H107.459V46.5688H100.082Z" fill="#231F20"/>
<path d="M146.947 20.8973C148.959 20.8973 150.774 21.2886 152.312 22.1104C153.851 22.9322 155.113 24.1453 156.02 25.789C156.928 27.4326 157.362 29.5458 157.362 32.0894V46.5688H149.985V33.2243C149.985 31.1894 149.551 29.7023 148.722 28.724C147.854 27.7456 146.671 27.276 145.132 27.276C144.067 27.276 143.081 27.5108 142.253 28.0196C141.385 28.4892 140.754 29.2327 140.28 30.211C139.807 31.1894 139.57 32.4025 139.57 33.9287V46.608H132.193V33.2634C132.193 31.2285 131.759 29.7414 130.931 28.7631C130.102 27.7848 128.919 27.3152 127.341 27.3152C126.276 27.3152 125.29 27.55 124.461 28.0587C123.593 28.5283 122.962 29.2718 122.489 30.2502C122.015 31.2285 121.779 32.4416 121.779 33.9679V46.6471H114.402V21.3669H121.463V28.2544L120.122 26.2194C120.99 24.4975 122.252 23.2061 123.869 22.3061C125.487 21.406 127.341 20.9755 129.432 20.9755C131.759 20.9755 133.811 21.5625 135.546 22.7365C137.282 23.9105 138.466 25.7107 139.018 28.0978L136.414 27.3934C137.282 25.4368 138.623 23.8714 140.517 22.6974C142.41 21.5234 144.541 20.9755 146.986 20.9755L146.947 20.8973Z" fill="#231F20"/>
<path d="M176.849 46.921C173.93 46.921 171.405 46.3732 169.196 45.2383C166.987 44.1034 165.291 42.5772 164.107 40.6205C162.924 38.6639 162.293 36.4333 162.293 33.9287C162.293 31.4242 162.884 29.1544 164.068 27.1978C165.251 25.2411 166.869 23.7149 168.92 22.58C170.971 21.4843 173.299 20.8973 175.863 20.8973C178.427 20.8973 180.597 21.406 182.609 22.4626C184.621 23.5192 186.199 25.0063 187.382 26.963C188.566 28.9196 189.118 31.2676 189.118 33.9679C189.118 34.2418 189.118 34.5549 189.079 34.9462C189.079 35.2984 189 35.6506 189 35.9637H168.328V31.6981H185.134L182.293 32.9504C182.293 31.6198 182.017 30.485 181.504 29.5066C180.952 28.5283 180.242 27.7848 179.295 27.2369C178.348 26.689 177.244 26.4151 175.981 26.4151C174.719 26.4151 173.615 26.689 172.628 27.2369C171.682 27.7848 170.932 28.5674 170.38 29.5458C169.827 30.5241 169.591 31.6981 169.591 33.0286V34.1635C169.591 35.5332 169.906 36.7463 170.498 37.8029C171.129 38.8595 171.997 39.6422 173.102 40.1901C174.206 40.7379 175.548 41.0119 177.047 41.0119C178.388 41.0119 179.611 40.8162 180.636 40.3857C181.662 39.9944 182.609 39.3683 183.437 38.5465L187.382 42.7729C186.199 44.1034 184.739 45.0818 182.964 45.7862C181.189 46.4906 179.177 46.8428 176.849 46.8428V46.921Z" fill="#231F20"/>
<path d="M194.049 46.5688V11.7009H201.426V46.5297H194.049V46.5688Z" fill="url(#paint0_linear_2_3)"/>
<path d="M211.762 17.3361C210.657 17.3361 209.75 16.9839 209.04 16.3187C208.33 15.6143 207.974 14.7924 207.974 13.8141C207.974 12.8358 208.33 11.9748 209.04 11.3096C209.75 10.6443 210.657 10.2921 211.762 10.2921C212.866 10.2921 213.773 10.6052 214.484 11.2704C215.194 11.8966 215.549 12.7184 215.549 13.6967C215.549 14.7142 215.194 15.6143 214.523 16.3187C213.813 17.0231 212.906 17.3753 211.762 17.3753V17.3361ZM208.763 46.5297V21.4451H214.681V46.5297H208.763Z" fill="url(#paint1_linear_2_3)"/>
<path d="M219.099 26.376V21.6799H235.944V26.376H219.099ZM223.281 46.5688V20.0755C223.281 17.4535 224.07 15.3403 225.608 13.775C227.186 12.2096 229.395 11.3878 232.314 11.3878C233.34 11.3878 234.326 11.5052 235.273 11.7009C236.22 11.9357 236.969 12.2488 237.601 12.7184L235.983 17.1405C235.549 16.7883 235.036 16.5535 234.484 16.3578C233.932 16.1621 233.34 16.0839 232.748 16.0839C231.525 16.0839 230.579 16.4361 229.947 17.1013C229.316 17.7666 229.001 18.7841 229.001 20.1146V22.9322L229.198 25.5542V46.4906H223.281V46.5688Z" fill="url(#paint2_linear_2_3)"/>
<path d="M242.492 56C241.269 56 240.046 55.8043 238.784 55.3739C237.561 54.9825 236.535 54.3955 235.707 53.6911L238.074 49.3864C238.666 49.9343 239.336 50.3256 240.125 50.6387C240.875 50.9518 241.664 51.1083 242.453 51.1083C243.518 51.1083 244.386 50.8344 245.056 50.3256C245.727 49.7778 246.319 48.9168 246.911 47.6646L248.37 44.3774L248.844 43.6729L258.39 21.5234H264.071L252.236 48.6038C251.447 50.4822 250.579 51.9692 249.593 53.065C248.646 54.1607 247.542 54.9434 246.358 55.3739C245.175 55.8043 243.873 56.0391 242.453 56.0391L242.492 56ZM247.699 47.4689L236.299 21.4843H242.453L251.723 43.1251L247.699 47.4298V47.4689Z" fill="url(#paint3_linear_2_3)"/>
<path d="M268.095 46.8819C267.029 46.8819 266.122 46.5297 265.333 45.7862C264.584 45.0426 264.189 44.1034 264.189 43.0077C264.189 41.8337 264.584 40.8553 265.333 40.1509C266.083 39.4465 266.99 39.0943 268.095 39.0943C269.199 39.0943 270.067 39.4465 270.856 40.1509C271.605 40.8553 272 41.7945 272 43.0077C272 44.1426 271.605 45.0818 270.856 45.7862C270.106 46.5297 269.199 46.8819 268.095 46.8819Z" fill="url(#paint4_linear_2_3)"/>
<path d="M1.65646 37.0596L6.42978 35.6899C6.42978 35.6899 6.50867 36.003 6.58757 36.1595C7.10041 37.5683 7.69214 38.938 8.44167 40.2685L4.69403 43.047C3.62891 41.4425 2.72158 39.7206 1.97205 37.9596C1.85371 37.6466 1.73536 37.3726 1.65646 37.0596ZM21.2231 51.1867C19.6451 50.5997 18.1066 49.8562 16.6865 48.9561L14.714 52.1259C16.5681 53.1043 18.5406 53.8869 20.5525 54.3957L21.2231 51.1867ZM13.9645 46.8821C12.6627 45.7863 11.4398 44.534 10.4141 43.2035C10.4141 43.1644 10.3352 43.1252 10.3352 43.0861L6.78482 45.7472C6.78482 45.7472 7.02151 46.0211 7.10041 46.1385C8.52057 47.7039 10.0985 49.1127 11.8343 50.3258L13.9645 46.8821ZM29.6652 52.9477C27.89 52.8695 26.1937 52.5955 24.4974 52.1651L23.8662 55.061C25.8781 55.374 27.9294 55.4132 29.9413 55.2566L29.6257 52.9477H29.6652ZM55.7803 27.0414C55.7409 26.2196 55.7409 25.4369 55.662 24.6151L55.3069 22.228C55.1097 21.4453 54.9124 20.6626 54.7152 19.88C54.6363 19.4886 54.4785 19.0973 54.3207 18.7451L53.8868 17.6102C51.5198 11.5837 46.9832 6.45718 41.2631 3.36564C35.5825 0.274095 28.7578 -0.704242 22.3671 0.508896C15.9764 1.8003 10.0591 5.36145 6.03529 10.4488C1.89315 15.497 -0.158187 22.0714 -0.000391369 28.4893C0.0390575 29.3111 0.0390575 30.0938 0.157404 30.9156L0.512444 33.3027L0.630791 33.7723L5.5619 32.3635V32.2853C5.483 31.62 5.4041 30.9547 5.32521 30.3286C5.24631 29.6633 5.32521 28.9981 5.28576 28.3719C5.24631 27.7067 5.36466 27.0805 5.4041 26.4153L5.483 25.4369L5.68025 24.4586C5.79859 23.8324 5.87749 23.1672 6.07474 22.541L6.35088 21.6018L6.46922 21.1322C6.46922 21.1322 6.58757 20.8192 6.66647 20.6626C7.53434 18.2364 8.79671 15.9275 10.4536 13.9317C12.1104 11.9359 14.0829 10.1749 16.292 8.80519C18.5011 7.43552 20.947 6.41805 23.4717 5.83105C28.6 4.73531 34.1229 5.28318 38.9751 7.55292C41.4209 8.68779 43.6695 10.2531 45.642 12.1707C45.8787 12.4055 46.1548 12.6403 46.3915 12.9142L47.0621 13.6969L47.7327 14.4795C47.93 14.7535 48.1272 15.0274 48.3245 15.3405L48.9557 16.1623C49.1529 16.4362 49.3107 16.7493 49.5079 17.0624C49.863 17.6494 50.2575 18.2364 50.5336 18.9016C51.796 21.4062 52.6244 24.1846 53.0189 27.0805C53.2556 28.5285 53.295 30.0155 53.2556 31.5026C53.2161 32.9897 53.0583 34.4767 52.7428 36.003V36.0812C52.6244 36.4726 52.8611 36.8639 53.2556 37.0204C53.6895 37.177 54.1629 36.9422 54.2813 36.5117C55.3069 33.4593 55.8592 30.2503 55.7409 27.0414H55.7803ZM42.2494 50.678H42.2099C39.2118 51.9303 36.1348 52.6738 33.0972 52.9086L33.3734 54.787C36.6082 54.1217 39.7246 52.9086 42.5255 51.1476C42.6438 51.0693 42.6833 50.9128 42.6438 50.7954C42.5649 50.6389 42.4072 50.5997 42.2888 50.6389L42.2494 50.678ZM49.8235 32.8723L50.6914 42.9687L59.0546 37.177L49.7841 32.8723H49.8235ZM24.2607 29.0372L23.0772 30.2112C22.4066 30.8765 22.4066 31.9331 23.0772 32.5983C23.3928 32.9114 23.8662 33.1071 24.3001 33.1071C24.7341 33.1071 25.168 32.9505 25.523 32.5983L26.6671 31.4635C25.523 31.0721 24.6552 30.1721 24.3001 29.0372H24.2607ZM26.7459 24.1846L16.5287 14.0491C15.8581 13.3838 14.7929 13.3838 14.1223 14.0491C13.4517 14.7143 13.4517 15.7709 14.1223 16.4362L24.3001 26.5327C24.6946 25.3978 25.6019 24.5368 26.7459 24.1846ZM31.6376 29.0372C31.2826 30.1721 30.3752 31.0721 29.2707 31.4635L30.4147 32.5983C30.7303 32.9114 31.2037 33.1071 31.6376 33.1071C32.0715 33.1071 32.5055 32.9505 32.8605 32.5983C33.5312 31.9331 33.5312 30.8765 32.8605 30.2112L31.6771 29.0372H31.6376ZM53.1767 2.7395C52.5061 2.07423 51.4409 2.07423 50.7703 2.7395L29.1523 24.1846C30.2963 24.5368 31.2037 25.4369 31.5982 26.5327L53.1767 5.12665C53.8473 4.46138 53.8473 3.40477 53.1767 2.7395ZM29.823 27.8241C29.823 26.8066 28.9945 25.9848 27.9689 25.9848C26.9432 25.9848 26.1148 26.8066 26.1148 27.8241C26.1148 28.8415 26.9432 29.6633 27.9689 29.6633C28.9945 29.6633 29.823 28.8415 29.823 27.8241ZM29.823 27.8241C29.823 26.8066 28.9945 25.9848 27.9689 25.9848C26.9432 25.9848 26.1148 26.8066 26.1148 27.8241C26.1148 28.8415 26.9432 29.6633 27.9689 29.6633C28.9945 29.6633 29.823 28.8415 29.823 27.8241Z" fill="url(#paint5_linear_2_3)"/>
</g>
<defs>
<linearGradient id="paint0_linear_2_3" x1="191.051" y1="24.7715" x2="248.566" y2="62.6058" gradientUnits="userSpaceOnUse">
<stop stop-color="#4C69B1"/>
<stop offset="0.13" stop-color="#4873B4"/>
<stop offset="0.36" stop-color="#3F91BC"/>
<stop offset="0.62" stop-color="#32BBC9"/>
<stop offset="0.77" stop-color="#38BAD1"/>
<stop offset="0.99" stop-color="#4AB8E7"/>
<stop offset="1" stop-color="#4CB8E9"/>
</linearGradient>
<linearGradient id="paint1_linear_2_3" x1="195.272" y1="18.3145" x2="252.826" y2="56.1095" gradientUnits="userSpaceOnUse">
<stop stop-color="#4C69B1"/>
<stop offset="0.13" stop-color="#4873B4"/>
<stop offset="0.36" stop-color="#3F91BC"/>
<stop offset="0.62" stop-color="#32BBC9"/>
<stop offset="0.77" stop-color="#38BAD1"/>
<stop offset="0.99" stop-color="#4AB8E7"/>
<stop offset="1" stop-color="#4CB8E9"/>
</linearGradient>
<linearGradient id="paint2_linear_2_3" x1="200.558" y1="10.3312" x2="258.073" y2="48.1261" gradientUnits="userSpaceOnUse">
<stop stop-color="#4C69B1"/>
<stop offset="0.13" stop-color="#4873B4"/>
<stop offset="0.36" stop-color="#3F91BC"/>
<stop offset="0.62" stop-color="#32BBC9"/>
<stop offset="0.77" stop-color="#38BAD1"/>
<stop offset="0.99" stop-color="#4AB8E7"/>
<stop offset="1" stop-color="#4CB8E9"/>
</linearGradient>
<linearGradient id="paint3_linear_2_3" x1="202.649" y1="7.08315" x2="260.203" y2="44.8782" gradientUnits="userSpaceOnUse">
<stop stop-color="#4C69B1"/>
<stop offset="0.13" stop-color="#4873B4"/>
<stop offset="0.36" stop-color="#3F91BC"/>
<stop offset="0.62" stop-color="#32BBC9"/>
<stop offset="0.77" stop-color="#38BAD1"/>
<stop offset="0.99" stop-color="#4AB8E7"/>
<stop offset="1" stop-color="#4CB8E9"/>
</linearGradient>
<linearGradient id="paint4_linear_2_3" x1="205.608" y1="2.58281" x2="263.162" y2="40.3778" gradientUnits="userSpaceOnUse">
<stop stop-color="#4C69B1"/>
<stop offset="0.13" stop-color="#4873B4"/>
<stop offset="0.36" stop-color="#3F91BC"/>
<stop offset="0.62" stop-color="#32BBC9"/>
<stop offset="0.77" stop-color="#38BAD1"/>
<stop offset="0.99" stop-color="#4AB8E7"/>
<stop offset="1" stop-color="#4CB8E9"/>
</linearGradient>
<linearGradient id="paint5_linear_2_3" x1="-2.48567" y1="27.6675" x2="61.7371" y2="27.6675" gradientUnits="userSpaceOnUse">
<stop stop-color="#4C69B1"/>
<stop offset="0.13" stop-color="#4873B4"/>
<stop offset="0.36" stop-color="#3F91BC"/>
<stop offset="0.62" stop-color="#32BBC9"/>
<stop offset="0.77" stop-color="#38BAD1"/>
<stop offset="0.99" stop-color="#4AB8E7"/>
<stop offset="1" stop-color="#4CB8E9"/>
</linearGradient>
<clipPath id="clip0_2_3">
<rect width="272" height="56" fill="white"/>
</clipPath>
</defs>
</svg>
