<svg width="22" height="21" viewBox="0 0 22 21" fill="none" xmlns="http://www.w3.org/2000/svg">
<path d="M0.609608 14.0611L2.35694 13.5414C2.35694 13.5414 2.38582 13.6602 2.4147 13.7196C2.60243 14.2541 2.81905 14.7739 3.09342 15.2787L1.72155 16.3331C1.33165 15.7242 0.999509 15.0709 0.725135 14.4026C0.681812 14.2838 0.63849 14.1799 0.609608 14.0611ZM7.77223 19.4217C7.1946 19.199 6.63141 18.9168 6.11154 18.5753L5.3895 19.7781C6.06822 20.1493 6.79026 20.4463 7.52673 20.6394L7.77223 19.4217ZM5.11513 17.7883C4.63858 17.3725 4.19092 16.8973 3.81546 16.3924C3.81546 16.3776 3.78658 16.3628 3.78658 16.3479L2.48691 17.3577C2.48691 17.3577 2.57355 17.4616 2.60243 17.5062C3.1223 18.1001 3.69993 18.6347 4.33533 19.095L5.11513 17.7883ZM10.8626 20.0899C10.2127 20.0603 9.59176 19.9563 8.97081 19.793L8.73976 20.8918C9.47624 21.0106 10.2272 21.0255 10.9636 20.9661L10.8481 20.0899H10.8626ZM20.4223 10.2596C20.4079 9.94781 20.4079 9.65082 20.379 9.33898L20.249 8.43317C20.1768 8.13618 20.1046 7.8392 20.0324 7.54221C20.0036 7.39371 19.9458 7.24522 19.888 7.11157L19.7292 6.68094C18.8627 4.39413 17.202 2.44886 15.1081 1.27576C13.0287 0.102658 10.5304 -0.268577 8.19101 0.191754C5.85161 0.681784 3.68549 2.03308 2.21253 3.9635C0.696253 5.87907 -0.0546666 8.37377 0.00309643 10.8091C0.0175372 11.1209 0.0175372 11.4179 0.0608595 11.7297L0.190826 12.6356L0.234149 12.8137L2.03924 12.2792V12.2495C2.01036 11.997 1.98148 11.7446 1.9526 11.507C1.92372 11.2546 1.9526 11.0021 1.93816 10.7645C1.92372 10.5121 1.96704 10.2745 1.98148 10.0221L2.01036 9.65082L2.08257 9.27959C2.12589 9.042 2.15477 8.78956 2.22697 8.55197L2.32806 8.19558L2.37138 8.01739C2.37138 8.01739 2.4147 7.89859 2.44359 7.8392C2.76128 6.91853 3.22339 6.04242 3.8299 5.2851C4.43641 4.52778 5.15845 3.85956 5.96713 3.33983C6.77582 2.8201 7.67114 2.43401 8.59535 2.21127C10.4727 1.79549 12.4944 2.00338 14.2706 2.86465C15.1659 3.29528 15.989 3.88925 16.7111 4.61688C16.7977 4.70597 16.8988 4.79507 16.9854 4.89901L17.2309 5.196L17.4764 5.49299C17.5486 5.59694 17.6208 5.70088 17.693 5.81968L17.9241 6.13151C17.9963 6.23546 18.0541 6.35426 18.1263 6.47305C18.2562 6.69579 18.4006 6.91853 18.5017 7.17097C18.9638 8.12133 19.2671 9.17564 19.4115 10.2745C19.4981 10.8239 19.5126 11.3882 19.4981 11.9525C19.4837 12.5168 19.4259 13.081 19.3104 13.6602V13.6899C19.2671 13.8384 19.3537 13.9868 19.4981 14.0462C19.657 14.1056 19.8303 14.0165 19.8736 13.8532C20.249 12.6949 20.4512 11.4773 20.4079 10.2596H20.4223ZM15.4692 19.2287H15.4547C14.3572 19.7039 13.2308 19.986 12.1189 20.0751L12.22 20.7879C13.4041 20.5354 14.5449 20.0751 15.5702 19.4069C15.6136 19.3772 15.628 19.3178 15.6136 19.2732C15.5847 19.2138 15.5269 19.199 15.4836 19.2138L15.4692 19.2287ZM18.2418 12.4722L18.5595 16.3034L21.6209 14.1056L18.2273 12.4722H18.2418ZM8.88417 11.017L8.45094 11.4624C8.20545 11.7149 8.20545 12.1158 8.45094 12.3683C8.56647 12.4871 8.73976 12.5613 8.89861 12.5613C9.05746 12.5613 9.2163 12.5019 9.34627 12.3683L9.76505 11.9376C9.34627 11.7891 9.02857 11.4476 8.89861 11.017H8.88417ZM9.79394 9.17564L6.05378 5.32965C5.80828 5.07721 5.41838 5.07721 5.17289 5.32965C4.9274 5.58209 4.9274 5.98302 5.17289 6.23546L8.89861 10.0666C9.04301 9.63597 9.37515 9.30929 9.79394 9.17564ZM11.5846 11.017C11.4546 11.4476 11.1225 11.7891 10.7181 11.9376L11.1369 12.3683C11.2525 12.4871 11.4257 12.5613 11.5846 12.5613C11.7434 12.5613 11.9023 12.5019 12.0323 12.3683C12.2777 12.1158 12.2777 11.7149 12.0323 11.4624L11.599 11.017H11.5846ZM19.4692 1.03817C19.2238 0.78573 18.8339 0.78573 18.5884 1.03817L10.6748 9.17564C11.0936 9.30929 11.4257 9.65082 11.5701 10.0666L19.4692 1.94398C19.7147 1.69154 19.7147 1.29061 19.4692 1.03817ZM10.9203 10.5566C10.9203 10.1706 10.6171 9.85871 10.2416 9.85871C9.86614 9.85871 9.56288 10.1706 9.56288 10.5566C9.56288 10.9427 9.86614 11.2546 10.2416 11.2546C10.6171 11.2546 10.9203 10.9427 10.9203 10.5566ZM10.9203 10.5566C10.9203 10.1706 10.6171 9.85871 10.2416 9.85871C9.86614 9.85871 9.56288 10.1706 9.56288 10.5566C9.56288 10.9427 9.86614 11.2546 10.2416 11.2546C10.6171 11.2546 10.9203 10.9427 10.9203 10.5566Z" fill="#939393"/>
</svg>
